<?xml version="1.0" encoding="utf-8"?>
<?xml-stylesheet type="text/xsl" href="rss1.xsl"?>
<rss version="2.0" xmlns:atom="http://www.w3.org/2005/Atom" xmlns:content="http://purl.org/rss/1.0/modules/content/" xmlns:dc="http://purl.org/dc/elements/1.1/" xmlns:media="http://search.yahoo.com/mrss/">
<channel>
 <title>Getty</title>
 <link>http://www.gettyimg.com/</link>
 <atom:link href="http://www.gettyimg.com/" rel="self" type="application/rss+xml" />

 
                <item>
                <title><![CDATA[【Albums (lossless)】FLAC - RAMMSTEIN - 2009 - Liebe ist für alle da [24Bits-192kHz]]]></title>
                <link><![CDATA[https://sharemania.us/threads/rammstein-2009-liebe-ist-f%C3%BCr-alle-da-24bits-192khz.230954/]]></link>
                <description><![CDATA[<article>
<blockquote class="messageText SelectQuoteContainer ugc baseHtml">
<div style="text-align: center"><img src="https://static.qobuz.com/images/covers/55/10/0060252721055_600.jpg" class="bbCodeImage LbImage" alt="[​IMG]" data-url="https://static.qobuz.com/images/covers/55/10/0060252721055_600.jpg" style=""> <br>
<b>Band</b>: Rammstein<br>
<b>Album</b>: <span style="font-size: 15px">Liebe ist für alle da</span><br>
<b>Date</b>: 26 October 2009<br>
<b>Genre</b>: Industrial Metal<br>
<b>Quality</b>: 24Bits-192kHz<br>
<b>Country</b>: Germany<br>
<b>Size</b>: 2,4GB [Vinyl Rip]<br>
<br>
<b>Tracklist</b>:<br>
<br>
1-Rammlied 05:18<br>
2-Ich tu dir weh 05:01<br>
3-Waidmanns Heil 03:32<br>
4-Haifisch 03:45<br>
5-Bxxxxxxxx 04:14<br>
6-Frühling in Paris 04:44<br>
7-Wiener Blut 03:51<br>
8-Pussy 03:59<br>
9-Liebe ist für alle da 03:25<br>
10-Mehr 04:07<br>
11-Roter Sand 03:58<br>
<br>
<span style="font-size: 18px"><span style="color: #ff0000"><b>Send.cm</b></span></span>:<br>
<br>
<div class="bbCodeBlock bbCodeVfcHH HiddenContent">
<div class="attribution type">Hidden Content:</div>
<blockquote>You must either reply or click 'Like' to see the hidden information contained here.</blockquote>
</div></div>
<div class="messageTextEndMarker">&nbsp;</div>
</blockquote>
</article>]]></description>
                <author><![CDATA[XRB80]]></author>
                </item>

                
                <item>
                <title><![CDATA[【Cinema Center】MOVIE - Scream VI (2023) Bluray DualAudio HEVC - PSA]]></title>
                <link><![CDATA[https://sharemania.us/threads/scream-vi-2023-bluray-dualaudio-hevc-psa.230952/]]></link>
                <description><![CDATA[<article>
<blockquote class="messageText SelectQuoteContainer ugc baseHtml">
<img src="https://images2.imgbox.com/14/0d/Igc9aZLZ_o.jpg" class="bbCodeImage LbImage" alt="[​IMG]" data-url="https://images2.imgbox.com/14/0d/Igc9aZLZ_o.jpg" style=""> <br>
<img src="https://images2.imgbox.com/29/8c/LapMsO8D_o.jpg" class="bbCodeImage LbImage" alt="[​IMG]" data-url="https://images2.imgbox.com/29/8c/LapMsO8D_o.jpg" style=""><br>
Credits to <a href="https://psa.wf/?s=scream" target="_blank" class="externalLink" rel="nofollow">PSArips</a><br>
I just added the audio in portuguese from brazilian torrents<br>
<br>
<div class="ToggleTriggerAnchor bbCodeSpoilerContainer">
<button type="button" class="button bbCodeSpoilerButton ToggleTrigger Tooltip JsOnly" data-target="> .SpoilerTarget"><span>Spoiler: <span class="SpoilerTitle">Scream.VI.2023.1080p.10bit.BluRay.DUAL.8CH.x265.HEVC-PSA</span></span></button>
<div class="SpoilerTarget bbCodeSpoilerText">General<br>
Unique ID : 214887512048263292520998661663911888711 (0xA1A9D45466BE8B8491EB172DD8E4C747)<br>
Complete name : C:\Users\rodri\Downloads\Scream.VI.2023.1080p.10bit.BluRay.DUAL.8CH.x265.HEVC-PSA.mkv<br>
Format : Matroska<br>
Format version : Version 4<br>
File size : 2.44 GiB<br>
Duration : 2 h 5 min<br>
Overall bit rate : 2 796 kb/s<br>
Movie name : Scream.VI.2023.1080p.10bit.BluRay.DUAL.8CH.x265.HEVC-PSA<br>
Encoded date : UTC 2023-10-23 08:07:00<br>
Writing application : mkvmerge v77.0 ('Elemental') 64-bit<br>
Writing library : libebml v1.4.4 + libmatroska v1.7.1<br>
Cover : Yes<br>
Attachments : cover.jpg<br>
Video<br>
ID : 1<br>
Format : HEVC<br>
Format/Info : High Efficiency Video Coding<br>
Format profile : Main 10@L4@Main<br>
Codec ID : V_MPEGH/ISO/HEVC<br>
Duration : 2 h 2 min<br>
Bit rate : 1 903 kb/s<br>
Width : 1 920 pixels<br>
Height : 808 pixels<br>
Display aspect ratio : 2.40:1<br>
Frame rate mode : Constant<br>
Frame rate : 23.976 (24000/1001) FPS<br>
Color space : YUV<br>
Chroma subsampling : 4:2:0<br>
Bit depth : 10 bits<br>
Bits/(Pixel*Frame) : 0.051<br>
Stream size : 1.63 GiB (67%)<br>
Default : Yes<br>
Forced : No<br>
Audio #1<br>
ID : 2<br>
Format : AAC LC SBR<br>
Format/Info : Advanced Audio Codec Low Complexity with Spectral Band Replication<br>
Commercial name : HE-AAC<br>
Format settings : Explicit<br>
Codec ID : A_AAC-2<br>
Duration : 2 h 2 min<br>
Bit rate : 295 kb/s<br>
Channel(s) : 8 channels<br>
Channel layout : C L R Ls Rs Lw Rw LFE<br>
Sampling rate : 48.0 kHz<br>
Frame rate : 23.438 FPS (2048 SPF)<br>
Compression mode : Lossy<br>
Delay relative to video : 31 ms<br>
Stream size : 259 MiB (10%)<br>
Language : English<br>
Default : No<br>
Forced : No<br>
Audio #2<br>
ID : 3<br>
Format : E-AC-3<br>
Format/Info : Enhanced AC-3<br>
Commercial name : Dolby Digital Plus<br>
Codec ID : A_EAC3<br>
Duration : 2 h 5 min<br>
Bit rate mode : Constant<br>
Bit rate : 640 kb/s<br>
Channel(s) : 6 channels<br>
Channel layout : L R C LFE Ls Rs<br>
Sampling rate : 48.0 kHz<br>
Frame rate : 31.250 FPS (1536 SPF)<br>
Compression mode : Lossy<br>
Delay relative to video : 27 ms<br>
Stream size : 573 MiB (23%)<br>
Title : PT-BR 5.1<br>
Language : Portuguese (BR)<br>
Service kind : Complete Main<br>
Default : No<br>
Forced : No<br>
Text #1<br>
ID : 4<br>
Format : UTF-8<br>
Codec ID : S_TEXT/UTF8<br>
Codec ID/Info : UTF-8 Plain Text<br>
Duration : 2 h 0 min<br>
Bit rate : 0 b/s<br>
Frame rate : 0.003 FPS<br>
Count of elements : 25<br>
Stream size : 610 Bytes (0%)<br>
Title : PT-BR FORCED<br>
Language : Portuguese (BR)<br>
Default : No<br>
Forced : No<br>
Text #2<br>
ID : 5<br>
Format : UTF-8<br>
Codec ID : S_TEXT/UTF8<br>
Codec ID/Info : UTF-8 Plain Text<br>
Duration : 2 h 1 min<br>
Bit rate : 51 b/s<br>
Frame rate : 0.227 FPS<br>
Count of elements : 1657<br>
Stream size : 46.1 KiB (0%)<br>
Title : PT-BR FULL<br>
Language : Portuguese (BR)<br>
Default : No<br>
Forced : No<br>
Text #3<br>
ID : 6<br>
Format : UTF-8<br>
Codec ID : S_TEXT/UTF8<br>
Codec ID/Info : UTF-8 Plain Text<br>
Duration : 2 h 1 min<br>
Bit rate : 51 b/s<br>
Frame rate : 0.227 FPS<br>
Count of elements : 1657<br>
Stream size : 46.1 KiB (0%)<br>
Title : Brazilian<br>
Language : Portuguese (BR)<br>
Default : No<br>
Forced : No<br>
Text #4<br>
ID : 7<br>
Format : UTF-8<br>
Codec ID : S_TEXT/UTF8<br>
Codec ID/Info : UTF-8 Plain Text<br>
Duration : 2 h 1 min<br>
Bit rate : 64 b/s<br>
Frame rate : 0.255 FPS<br>
Count of elements : 1859<br>
Stream size : 57.4 KiB (0%)<br>
Language : English<br>
Default : No<br>
Forced : No<br>
Text #5<br>
ID : 8<br>
Format : UTF-8<br>
Codec ID : S_TEXT/UTF8<br>
Codec ID/Info : UTF-8 Plain Text<br>
Duration : 2 h 1 min<br>
Bit rate : 64 b/s<br>
Frame rate : 0.255 FPS<br>
Count of elements : 1859<br>
Stream size : 57.5 KiB (0%)<br>
Title : Inglês FULL<br>
Language : English (US)<br>
Default : No<br>
Forced : No<br>
Text #6<br>
ID : 9<br>
Format : UTF-8<br>
Codec ID : S_TEXT/UTF8<br>
Codec ID/Info : UTF-8 Plain Text<br>
Duration : 2 h 1 min<br>
Bit rate : 73 b/s<br>
Frame rate : 0.294 FPS<br>
Count of elements : 2150<br>
Stream size : 65.4 KiB (0%)<br>
Title : Inglês SDH<br>
Language : English (US)<br>
Default : No<br>
Forced : No<br>
Text #7<br>
ID : 10<br>
Format : UTF-8<br>
Codec ID : S_TEXT/UTF8<br>
Codec ID/Info : UTF-8 Plain Text<br>
Duration : 2 h 1 min<br>
Bit rate : 73 b/s<br>
Frame rate : 0.294 FPS<br>
Count of elements : 2150<br>
Stream size : 65.4 KiB (0%)<br>
Title : SDH<br>
Language : English (US)<br>
Default : No<br>
Forced : No<br>
Text #8<br>
ID : 11<br>
Format : UTF-8<br>
Codec ID : S_TEXT/UTF8<br>
Codec ID/Info : UTF-8 Plain Text<br>
Duration : 2 h 1 min<br>
Bit rate : 55 b/s<br>
Frame rate : 0.225 FPS<br>
Count of elements : 1639<br>
Stream size : 49.4 KiB (0%)<br>
Language : German (DE)<br>
Default : No<br>
Forced : No<br>
Text #9<br>
ID : 12<br>
Format : UTF-8<br>
Codec ID : S_TEXT/UTF8<br>
Codec ID/Info : UTF-8 Plain Text<br>
Duration : 2 h 1 min<br>
Bit rate : 57 b/s<br>
Frame rate : 0.224 FPS<br>
Count of elements : 1633<br>
Stream size : 50.9 KiB (0%)<br>
Title : Latin American<br>
Language : Spanish (Latin America)<br>
Default : No<br>
Forced : No<br>
Text #10<br>
ID : 13<br>
Format : UTF-8<br>
Codec ID : S_TEXT/UTF8<br>
Codec ID/Info : UTF-8 Plain Text<br>
Duration : 2 h 1 min<br>
Bit rate : 60 b/s<br>
Frame rate : 0.226 FPS<br>
Count of elements : 1648<br>
Stream size : 53.5 KiB (0%)<br>
Language : Spanish (ES)<br>
Default : No<br>
Forced : No<br>
Text #11<br>
ID : 14<br>
Format : UTF-8<br>
Codec ID : S_TEXT/UTF8<br>
Codec ID/Info : UTF-8 Plain Text<br>
Duration : 2 h 1 min<br>
Bit rate : 58 b/s<br>
Frame rate : 0.229 FPS<br>
Count of elements : 1668<br>
Stream size : 51.7 KiB (0%)<br>
Title : Canadian<br>
Language : French (CA)<br>
Default : No<br>
Forced : No<br>
Text #12<br>
ID : 15<br>
Format : UTF-8<br>
Codec ID : S_TEXT/UTF8<br>
Codec ID/Info : UTF-8 Plain Text<br>
Duration : 2 h 1 min<br>
Bit rate : 50 b/s<br>
Frame rate : 0.209 FPS<br>
Count of elements : 1525<br>
Stream size : 45.3 KiB (0%)<br>
Language : French (FR)<br>
Default : No<br>
Forced : No<br>
Text #13<br>
ID : 16<br>
Format : UTF-8<br>
Codec ID : S_TEXT/UTF8<br>
Codec ID/Info : UTF-8 Plain Text<br>
Duration : 2 h 1 min<br>
Bit rate : 152 b/s<br>
Frame rate : 0.232 FPS<br>
Count of elements : 1691<br>
Stream size : 136 KiB (0%)<br>
Language : Hindi (IN)<br>
Default : No<br>
Forced : No<br>
Text #14<br>
ID : 17<br>
Format : UTF-8<br>
Codec ID : S_TEXT/UTF8<br>
Codec ID/Info : UTF-8 Plain Text<br>
Duration : 2 h 1 min<br>
Bit rate : 57 b/s<br>
Frame rate : 0.228 FPS<br>
Count of elements : 1664<br>
Stream size : 51.0 KiB (0%)<br>
Language : Italian (IT)<br>
Default : No<br>
Forced : No<br>
Text #15<br>
ID : 18<br>
Format : UTF-8<br>
Codec ID : S_TEXT/UTF8<br>
Codec ID/Info : UTF-8 Plain Text<br>
Duration : 2 h 1 min<br>
Bit rate : 46 b/s<br>
Frame rate : 0.242 FPS<br>
Count of elements : 1764<br>
Stream size : 41.0 KiB (0%)<br>
Language : Japanese (JP)<br>
Default : No<br>
Forced : No<br>
Text #16<br>
ID : 19<br>
Format : UTF-8<br>
Codec ID : S_TEXT/UTF8<br>
Codec ID/Info : UTF-8 Plain Text<br>
Duration : 2 h 1 min<br>
Bit rate : 44 b/s<br>
Frame rate : 0.174 FPS<br>
Count of elements : 1270<br>
Stream size : 39.8 KiB (0%)<br>
Language : Dutch (NL)<br>
Default : No<br>
Forced : No</div>
</div>
<div class="ToggleTriggerAnchor bbCodeSpoilerContainer">
<button type="button" class="button bbCodeSpoilerButton ToggleTrigger Tooltip JsOnly" data-target="> .SpoilerTarget"><span>Spoiler: <span class="SpoilerTitle">Scream.VI.2023.2160p.10bit.HDR.DV.BluRay.DUAL.8CH.x265.HEVC-PSA</span></span></button>
<div class="SpoilerTarget bbCodeSpoilerText">General<br>
Unique ID : 171712806831120429564586319946226917203 (0x812EAF03C1E5E970FE5B97636204DF53)<br>
Complete name : C:\Users\rodri\Downloads\Scream.VI.2023.2160p.10bit.HDR.DV.BluRay.DUAL.8CH.x265.HEVC-PSA.mkv<br>
Format : Matroska<br>
Format version : Version 4<br>
File size : 3.69 GiB<br>
Duration : 2 h 5 min<br>
Overall bit rate : 4 224 kb/s<br>
Movie name : Scream.VI.2023.2160p.10bit.HDR.DV.BluRay.DUAL.8CH.x265.HEVC-PSA<br>
Encoded date : UTC 2023-10-23 08:18:57<br>
Writing application : mkvmerge v77.0 ('Elemental') 64-bit<br>
Writing library : libebml v1.4.4 + libmatroska v1.7.1<br>
Cover : Yes<br>
Attachments : cover.jpg<br>
Video<br>
ID : 1<br>
Format : HEVC<br>
Format/Info : High Efficiency Video Coding<br>
Format profile : Main 10@L5@Main<br>
HDR format : Dolby Vision, Version 1.0, dvhe.08.06, BL+RPU, HDR10 compatible / SMPTE ST 2086, HDR10 compatible<br>
Codec ID : V_MPEGH/ISO/HEVC<br>
Duration : 2 h 2 min<br>
Bit rate : 3 362 kb/s<br>
Width : 3 840 pixels<br>
Height : 1 608 pixels<br>
Display aspect ratio : 2.40:1<br>
Frame rate mode : Constant<br>
Frame rate : 23.976 (24000/1001) FPS<br>
Color space : YUV<br>
Chroma subsampling : 4:2:0 (Type 2)<br>
Bit depth : 10 bits<br>
Bits/(Pixel*Frame) : 0.023<br>
Stream size : 2.88 GiB (78%)<br>
Default : Yes<br>
Forced : No<br>
Color range : Limited<br>
Color primaries : BT.2020<br>
Transfer characteristics : PQ<br>
Matrix coefficients : BT.2020 non-constant<br>
Mastering display color primar : Display P3<br>
Mastering display luminance : min: 0.0050 cd/m2, max: 1000 cd/m2<br>
Maximum Content Light Level : 863 cd/m2<br>
Maximum Frame-Average Light Le : 202 cd/m2<br>
Audio #1<br>
ID : 2<br>
Format : AAC LC SBR<br>
Format/Info : Advanced Audio Codec Low Complexity with Spectral Band Replication<br>
Commercial name : HE-AAC<br>
Format settings : Explicit<br>
Codec ID : A_AAC-2<br>
Duration : 2 h 2 min<br>
Bit rate : 295 kb/s<br>
Channel(s) : 8 channels<br>
Channel layout : C L R Ls Rs Lw Rw LFE<br>
Sampling rate : 48.0 kHz<br>
Frame rate : 23.438 FPS (2048 SPF)<br>
Compression mode : Lossy<br>
Delay relative to video : 31 ms<br>
Stream size : 259 MiB (7%)<br>
Language : English<br>
Default : No<br>
Forced : No<br>
Audio #2<br>
ID : 3<br>
Format : E-AC-3<br>
Format/Info : Enhanced AC-3<br>
Commercial name : Dolby Digital Plus<br>
Codec ID : A_EAC3<br>
Duration : 2 h 5 min<br>
Bit rate mode : Constant<br>
Bit rate : 640 kb/s<br>
Channel(s) : 6 channels<br>
Channel layout : L R C LFE Ls Rs<br>
Sampling rate : 48.0 kHz<br>
Frame rate : 31.250 FPS (1536 SPF)<br>
Compression mode : Lossy<br>
Delay relative to video : 27 ms<br>
Stream size : 573 MiB (15%)<br>
Title : PT-BR 5.1<br>
Language : Portuguese (BR)<br>
Service kind : Complete Main<br>
Default : No<br>
Forced : No<br>
Text #1<br>
ID : 4<br>
Format : UTF-8<br>
Codec ID : S_TEXT/UTF8<br>
Codec ID/Info : UTF-8 Plain Text<br>
Duration : 2 h 0 min<br>
Bit rate : 0 b/s<br>
Frame rate : 0.003 FPS<br>
Count of elements : 25<br>
Stream size : 610 Bytes (0%)<br>
Title : PT-BR FORCED<br>
Language : Portuguese (BR)<br>
Default : No<br>
Forced : No<br>
Text #2<br>
ID : 5<br>
Format : UTF-8<br>
Codec ID : S_TEXT/UTF8<br>
Codec ID/Info : UTF-8 Plain Text<br>
Duration : 2 h 1 min<br>
Bit rate : 51 b/s<br>
Frame rate : 0.227 FPS<br>
Count of elements : 1657<br>
Stream size : 46.1 KiB (0%)<br>
Title : PT-BR FULL<br>
Language : Portuguese (BR)<br>
Default : No<br>
Forced : No<br>
Text #3<br>
ID : 6<br>
Format : UTF-8<br>
Codec ID : S_TEXT/UTF8<br>
Codec ID/Info : UTF-8 Plain Text<br>
Duration : 2 h 1 min<br>
Bit rate : 51 b/s<br>
Frame rate : 0.227 FPS<br>
Count of elements : 1657<br>
Stream size : 46.1 KiB (0%)<br>
Title : Brazilian<br>
Language : Portuguese (BR)<br>
Default : No<br>
Forced : No<br>
Text #4<br>
ID : 7<br>
Format : UTF-8<br>
Codec ID : S_TEXT/UTF8<br>
Codec ID/Info : UTF-8 Plain Text<br>
Duration : 2 h 1 min<br>
Bit rate : 64 b/s<br>
Frame rate : 0.255 FPS<br>
Count of elements : 1859<br>
Stream size : 57.4 KiB (0%)<br>
Language : English<br>
Default : No<br>
Forced : No<br>
Text #5<br>
ID : 8<br>
Format : UTF-8<br>
Codec ID : S_TEXT/UTF8<br>
Codec ID/Info : UTF-8 Plain Text<br>
Duration : 2 h 1 min<br>
Bit rate : 64 b/s<br>
Frame rate : 0.255 FPS<br>
Count of elements : 1859<br>
Stream size : 57.5 KiB (0%)<br>
Title : Inglês FULL<br>
Language : English (US)<br>
Default : No<br>
Forced : No<br>
Text #6<br>
ID : 9<br>
Format : UTF-8<br>
Codec ID : S_TEXT/UTF8<br>
Codec ID/Info : UTF-8 Plain Text<br>
Duration : 2 h 1 min<br>
Bit rate : 73 b/s<br>
Frame rate : 0.294 FPS<br>
Count of elements : 2150<br>
Stream size : 65.4 KiB (0%)<br>
Title : Inglês SDH<br>
Language : English (US)<br>
Default : No<br>
Forced : No<br>
Text #7<br>
ID : 10<br>
Format : UTF-8<br>
Codec ID : S_TEXT/UTF8<br>
Codec ID/Info : UTF-8 Plain Text<br>
Duration : 2 h 1 min<br>
Bit rate : 73 b/s<br>
Frame rate : 0.294 FPS<br>
Count of elements : 2150<br>
Stream size : 65.4 KiB (0%)<br>
Title : SDH<br>
Language : English (US)<br>
Default : No<br>
Forced : No<br>
Text #8<br>
ID : 11<br>
Format : UTF-8<br>
Codec ID : S_TEXT/UTF8<br>
Codec ID/Info : UTF-8 Plain Text<br>
Duration : 2 h 1 min<br>
Bit rate : 55 b/s<br>
Frame rate : 0.225 FPS<br>
Count of elements : 1639<br>
Stream size : 49.4 KiB (0%)<br>
Language : German (DE)<br>
Default : No<br>
Forced : No<br>
Text #9<br>
ID : 12<br>
Format : UTF-8<br>
Codec ID : S_TEXT/UTF8<br>
Codec ID/Info : UTF-8 Plain Text<br>
Duration : 2 h 1 min<br>
Bit rate : 57 b/s<br>
Frame rate : 0.224 FPS<br>
Count of elements : 1633<br>
Stream size : 50.9 KiB (0%)<br>
Title : Latin American<br>
Language : Spanish (Latin America)<br>
Default : No<br>
Forced : No<br>
Text #10<br>
ID : 13<br>
Format : UTF-8<br>
Codec ID : S_TEXT/UTF8<br>
Codec ID/Info : UTF-8 Plain Text<br>
Duration : 2 h 1 min<br>
Bit rate : 60 b/s<br>
Frame rate : 0.226 FPS<br>
Count of elements : 1648<br>
Stream size : 53.5 KiB (0%)<br>
Language : Spanish (ES)<br>
Default : No<br>
Forced : No<br>
Text #11<br>
ID : 14<br>
Format : UTF-8<br>
Codec ID : S_TEXT/UTF8<br>
Codec ID/Info : UTF-8 Plain Text<br>
Duration : 2 h 1 min<br>
Bit rate : 58 b/s<br>
Frame rate : 0.229 FPS<br>
Count of elements : 1668<br>
Stream size : 51.7 KiB (0%)<br>
Title : Canadian<br>
Language : French (CA)<br>
Default : No<br>
Forced : No<br>
Text #12<br>
ID : 15<br>
Format : UTF-8<br>
Codec ID : S_TEXT/UTF8<br>
Codec ID/Info : UTF-8 Plain Text<br>
Duration : 2 h 1 min<br>
Bit rate : 50 b/s<br>
Frame rate : 0.209 FPS<br>
Count of elements : 1525<br>
Stream size : 45.3 KiB (0%)<br>
Language : French (FR)<br>
Default : No<br>
Forced : No<br>
Text #13<br>
ID : 16<br>
Format : UTF-8<br>
Codec ID : S_TEXT/UTF8<br>
Codec ID/Info : UTF-8 Plain Text<br>
Duration : 2 h 1 min<br>
Bit rate : 152 b/s<br>
Frame rate : 0.232 FPS<br>
Count of elements : 1691<br>
Stream size : 136 KiB (0%)<br>
Language : Hindi (IN)<br>
Default : No<br>
Forced : No<br>
Text #14<br>
ID : 17<br>
Format : UTF-8<br>
Codec ID : S_TEXT/UTF8<br>
Codec ID/Info : UTF-8 Plain Text<br>
Duration : 2 h 1 min<br>
Bit rate : 57 b/s<br>
Frame rate : 0.228 FPS<br>
Count of elements : 1664<br>
Stream size : 51.0 KiB (0%)<br>
Language : Italian (IT)<br>
Default : No<br>
Forced : No<br>
Text #15<br>
ID : 18<br>
Format : UTF-8<br>
Codec ID : S_TEXT/UTF8<br>
Codec ID/Info : UTF-8 Plain Text<br>
Duration : 2 h 1 min<br>
Bit rate : 46 b/s<br>
Frame rate : 0.242 FPS<br>
Count of elements : 1764<br>
Stream size : 41.0 KiB (0%)<br>
Language : Japanese (JP)<br>
Default : No<br>
Forced : No<br>
Text #16<br>
ID : 19<br>
Format : UTF-8<br>
Codec ID : S_TEXT/UTF8<br>
Codec ID/Info : UTF-8 Plain Text<br>
Duration : 2 h 1 min<br>
Bit rate : 44 b/s<br>
Frame rate : 0.174 FPS<br>
Count of elements : 1270<br>
Stream size : 39.8 KiB (0%)<br>
Language : Dutch (NL)<br>
Default : No<br>
Forced : No</div>
</div><br>
Download:<br>
<div class="bbCodeBlock bbCodeVfcHH HiddenContent">
<div class="attribution type">Hidden Content:</div>
<blockquote>You must either reply or click 'Like' to see the hidden information contained here.</blockquote>
</div>
<div class="messageTextEndMarker">&nbsp;</div>
</blockquote>
</article>]]></description>
                <author><![CDATA[rodriggam]]></author>
                </item>

                
                <item>
                <title><![CDATA[【UPSCALED】t.A.T.u. - All About Us (Uncensored) [FLAC-HEVC] AI UPSCALE 1080p]]></title>
                <link><![CDATA[https://sharemania.us/threads/t-a-t-u-all-about-us-uncensored-flac-hevc-ai-upscale-1080p.230953/]]></link>
                <description><![CDATA[<article>
<blockquote class="messageText SelectQuoteContainer ugc baseHtml">
<img src="https://i.imgur.com/pXj9Bgs.jpg" class="bbCodeImage LbImage" alt="[​IMG]" data-url="https://i.imgur.com/pXj9Bgs.jpg" style=""> <br>
<img src="https://i.imgur.com/dSDuAoI.jpg" class="bbCodeImage LbImage" alt="[​IMG]" data-url="https://i.imgur.com/dSDuAoI.jpg" style=""> <br>
<img src="https://i.imgur.com/HFoxKwr.jpg" class="bbCodeImage LbImage" alt="[​IMG]" data-url="https://i.imgur.com/HFoxKwr.jpg" style=""> <br>
<img src="https://i.imgur.com/nctQC6E.jpg" class="bbCodeImage LbImage" alt="[​IMG]" data-url="https://i.imgur.com/nctQC6E.jpg" style=""> <br>
<br>
<div class="bbCodeBlock bbCodeVfcHH HiddenContent">
<div class="attribution type">Hidden Content:</div>
<blockquote>You must reply before you can see the hidden data contained here.</blockquote>
</div>
<div class="messageTextEndMarker">&nbsp;</div>
</blockquote>
</article>]]></description>
                <author><![CDATA[Clannadan]]></author>
                </item>

                </channel></rss>